<svg width="13" height="16" viewBox="0 0 13 16" fill="none" xmlns="http://www.w3.org/2000/svg">
<path d="M11.0965 1.90391C9.92186 0.728602 8.29333 -0.00044626 6.5 2.04942e-07C4.70708 -0.00044626 3.07835 0.728602 1.90391 1.90391C0.728602 3.07835 -0.000416502 4.70711 1.98761e-07 6.5C-0.000416502 8.19883 0.654399 9.75056 1.72279 10.9067C2.67367 11.9368 3.95696 12.6582 5.40131 12.9044V14.6483C5.40131 14.8782 5.53432 15.087 5.74264 15.1841C5.951 15.2812 6.19676 15.2485 6.37243 15.1007L10.6801 11.4779L10.679 11.4786C11.4934 10.7976 12.085 10.0455 12.4623 9.21067C12.8406 8.37605 13.0007 7.47133 13 6.5C13.0004 4.70711 12.2716 3.07835 11.0965 1.90391ZM11.3858 8.72328C11.088 9.37896 10.625 9.9813 9.92034 10.5725L9.91948 10.5734L6.58316 13.3792V12.3859C6.58316 12.0792 6.34784 11.8229 6.04243 11.797C4.68098 11.681 3.46737 11.0532 2.59117 10.1049C1.71562 9.15581 1.18227 7.89321 1.18185 6.5C1.18227 5.02952 1.77637 3.70379 2.73966 2.73939C3.70376 1.7761 5.02973 1.18206 6.5 1.18182C7.97048 1.18206 9.29621 1.7761 10.2606 2.73939C11.2241 3.70376 11.8177 5.02952 11.8181 6.5C11.8177 7.34528 11.6823 8.06691 11.3858 8.72328Z" fill="#333333"/>
<path d="M3.39742 5.71191C2.96226 5.71191 2.60938 6.0648 2.60938 6.49995C2.60938 6.93511 2.96226 7.288 3.39742 7.288C3.83236 7.288 4.18525 6.93511 4.18525 6.49995C4.18525 6.0648 3.83239 5.71191 3.39742 5.71191Z" fill="#333333"/>
<path d="M6.50072 5.71191C6.06578 5.71191 5.71289 6.0648 5.71289 6.49995C5.71289 6.93511 6.06578 7.288 6.50072 7.288C6.93588 7.288 7.28876 6.93511 7.28876 6.49995C7.28876 6.0648 6.93588 5.71191 6.50072 5.71191Z" fill="#333333"/>
<path d="M9.60229 5.71191C9.16713 5.71191 8.81445 6.0648 8.81445 6.49995C8.81445 6.93511 9.1671 7.288 9.60229 7.288C10.0374 7.288 10.3903 6.93511 10.3903 6.49995C10.3903 6.0648 10.0374 5.71191 9.60229 5.71191Z" fill="#333333"/>
</svg>
