<svg width="15" height="10" viewBox="0 0 15 10" fill="none" xmlns="http://www.w3.org/2000/svg">
<path fill-rule="evenodd" clip-rule="evenodd" d="M7.5 2.85718C6.25733 2.85718 5.25 3.81653 5.25 5.00004C5.25 6.18354 6.25733 7.14289 7.5 7.14289C8.74268 7.14289 9.75 6.18354 9.75 5.00004C9.75 3.81653 8.74268 2.85718 7.5 2.85718ZM6.75 5.00004C6.75 4.60554 7.08578 4.28575 7.5 4.28575C7.91423 4.28575 8.25 4.60554 8.25 5.00004C8.25 5.39454 7.91423 5.71432 7.5 5.71432C7.08578 5.71432 6.75 5.39454 6.75 5.00004Z" fill="#333333"/>
<path fill-rule="evenodd" clip-rule="evenodd" d="M14.8725 4.48621C13.1565 1.53704 10.3592 0 7.5 0C4.64083 0 1.84347 1.53704 0.127523 4.48621C-0.0402219 4.77457 -0.042292 5.13007 0.120218 5.41971C1.80887 8.4295 4.6221 10 7.5 10C10.3779 10 13.1912 8.4295 14.8798 5.41971C15.0423 5.13007 15.0402 4.77457 14.8725 4.48621ZM7.5 8.57143C5.29573 8.57143 3.03039 7.40886 1.5688 4.96336C3.05147 2.56867 5.30489 1.42857 7.5 1.42857C9.6951 1.42857 11.9486 2.56867 13.4312 4.96336C11.9696 7.40886 9.70425 8.57143 7.5 8.57143Z" fill="#333333"/>
</svg>
