<svg width="9" height="11" viewBox="0 0 9 11" fill="none" xmlns="http://www.w3.org/2000/svg">
<path d="M8.14147 2.66903L7.77925 3.90483H0.875843L1.23806 2.66903H8.14147ZM4.90283 11L1.00368 6.22727L0.982377 5.33239H2.9213C3.42556 5.33239 3.85525 5.26136 4.21036 5.11932C4.56547 4.97372 4.83714 4.7571 5.02535 4.46946C5.21356 4.17827 5.30766 3.8125 5.30766 3.37216C5.30766 2.7223 5.11235 2.21271 4.72172 1.84339C4.3311 1.47053 3.73096 1.28409 2.9213 1.28409H0.875843L1.23806 0.0909088H2.9213C3.78778 0.0909088 4.498 0.23473 5.05198 0.522372C5.60951 0.806463 6.02144 1.19709 6.28778 1.69425C6.55766 2.18785 6.6926 2.74716 6.6926 3.37216C6.6926 3.93679 6.56832 4.45703 6.31974 4.93288C6.07471 5.40518 5.68053 5.78516 5.13721 6.0728C4.59743 6.36044 3.88366 6.50426 2.99587 6.50426H2.96391L6.56476 10.9148V11H4.90283ZM8.14147 0.0909088L7.77925 1.3267L2.34601 1.28409L2.70823 0.0909088H8.14147Z" fill="#333333"/>
</svg>
