<svg width="20" height="20" viewBox="0 0 20 20" fill="none" xmlns="http://www.w3.org/2000/svg">
<path fill-rule="evenodd" clip-rule="evenodd" d="M3.32544 14.801C2.21139 13.6634 1.45577 12.2239 1.15232 10.6608C0.846352 9.09338 1.00347 7.47082 1.60446 5.99122C2.20033 4.51993 3.21761 3.25751 4.52859 2.36247C7.18846 0.545843 10.6901 0.545843 13.3499 2.36247C14.661 3.25751 15.6782 4.51993 16.274 5.99122C16.875 7.47082 17.0322 9.09338 16.7261 10.6608C16.4228 12.2239 15.6671 13.6634 14.553 14.801C13.0777 16.3149 11.0533 17.1689 8.9392 17.1689C6.8252 17.1689 4.80084 16.3149 3.32544 14.801Z" stroke="#999999" stroke-width="1.5" stroke-linecap="round" stroke-linejoin="round"/>
<path d="M8.95033 3.83766C8.41974 3.89388 8.03522 4.3696 8.09138 4.9002C8.14768 5.43081 8.6234 5.81537 9.15399 5.75915L8.95033 3.83766ZM11.3352 7.04417C11.5433 7.53556 12.1102 7.76524 12.6016 7.5572C13.0929 7.34919 13.3226 6.78225 13.1146 6.29089L11.3352 7.04417ZM15.5 14.1386C15.1224 13.7616 14.5107 13.7622 14.1338 14.1399C13.7567 14.5174 13.7574 15.1292 14.1349 15.5061L15.5 14.1386ZM18.3542 19.7176C18.7318 20.0946 19.3435 20.0941 19.7205 19.7164C20.0974 19.3387 20.0969 18.7271 19.7192 18.3501L18.3542 19.7176ZM9.15399 5.75915C10.0847 5.66053 10.9704 6.1823 11.3352 7.04417L13.1146 6.29089C12.4181 4.64551 10.7272 3.64939 8.95033 3.83766L9.15399 5.75915ZM14.1349 15.5061L18.3542 19.7176L19.7192 18.3501L15.5 14.1386L14.1349 15.5061Z" fill="#999999"/>
</svg>
